<svg width="177" height="170" viewBox="0 0 177 170" fill="none" xmlns="http://www.w3.org/2000/svg">
<g clip-path="url(#clip0_239_121)">
<rect width="177" height="170" fill="black"/>
<circle cx="89.0483" cy="85.0483" r="68.0483" fill="black"/>
<mask id="mask0_239_121" style="mask-type:alpha" maskUnits="userSpaceOnUse" x="21" y="17" width="137" height="137">
<circle cx="89.0483" cy="85.0483" r="68.0483" fill="#1E1E1E"/>
</mask>
<g mask="url(#mask0_239_121)">
<path fill-rule="evenodd" clip-rule="evenodd" d="M44.9091 46.1432C61.0826 46.1432 74.1939 33.032 74.1939 16.8584C74.1939 0.68485 61.0826 -12.4264 44.9091 -12.4264C28.7355 -12.4264 15.6243 0.68485 15.6243 16.8584C15.6243 33.032 28.7355 46.1432 44.9091 46.1432ZM44.9091 46.4262C61.2389 46.4262 74.4768 33.1882 74.4768 16.8584C74.4768 0.528584 61.2389 -12.7094 44.9091 -12.7094C28.5792 -12.7094 15.3413 0.528584 15.3413 16.8584C15.3413 33.1882 28.5792 46.4262 44.9091 46.4262Z" fill="white"/>
<path fill-rule="evenodd" clip-rule="evenodd" d="M74.3354 46.1432C90.5089 46.1432 103.62 33.032 103.62 16.8584C103.62 0.68485 90.5089 -12.4264 74.3354 -12.4264C58.1618 -12.4264 45.0505 0.68485 45.0505 16.8584C45.0505 33.032 58.1618 46.1432 74.3354 46.1432ZM74.3354 46.4262C90.6652 46.4262 103.903 33.1882 103.903 16.8584C103.903 0.528584 90.6652 -12.7094 74.3354 -12.7094C58.0055 -12.7094 44.7676 0.528584 44.7676 16.8584C44.7676 33.1882 58.0055 46.4262 74.3354 46.4262Z" fill="white"/>
<path fill-rule="evenodd" clip-rule="evenodd" d="M103.762 46.1432C119.935 46.1432 133.046 33.032 133.046 16.8584C133.046 0.68485 119.935 -12.4264 103.762 -12.4264C87.5881 -12.4264 74.4768 0.68485 74.4768 16.8584C74.4768 33.032 87.5881 46.1432 103.762 46.1432ZM103.762 46.4262C120.091 46.4262 133.329 33.1882 133.329 16.8584C133.329 0.528584 120.091 -12.7094 103.762 -12.7094C87.4318 -12.7094 74.1939 0.528584 74.1939 16.8584C74.1939 33.1882 87.4318 46.4262 103.762 46.4262Z" fill="white"/>
<path fill-rule="evenodd" clip-rule="evenodd" d="M133.188 46.1432C149.361 46.1432 162.473 33.032 162.473 16.8584C162.473 0.68485 149.361 -12.4264 133.188 -12.4264C117.014 -12.4264 103.903 0.68485 103.903 16.8584C103.903 33.032 117.014 46.1432 133.188 46.1432ZM133.188 46.4262C149.518 46.4262 162.756 33.1882 162.756 16.8584C162.756 0.528584 149.518 -12.7094 133.188 -12.7094C116.858 -12.7094 103.62 0.528584 103.62 16.8584C103.62 33.1882 116.858 46.4262 133.188 46.4262Z" fill="white"/>
<path fill-rule="evenodd" clip-rule="evenodd" d="M44.9091 176.864C61.0826 176.864 74.1939 163.753 74.1939 147.579C74.1939 131.406 61.0826 118.294 44.9091 118.294C28.7355 118.294 15.6243 131.406 15.6243 147.579C15.6243 163.753 28.7355 176.864 44.9091 176.864ZM44.9091 177.147C61.2389 177.147 74.4768 163.909 74.4768 147.579C74.4768 131.249 61.2389 118.011 44.9091 118.011C28.5792 118.011 15.3413 131.249 15.3413 147.579C15.3413 163.909 28.5792 177.147 44.9091 177.147Z" fill="white"/>
<path fill-rule="evenodd" clip-rule="evenodd" d="M74.3354 176.864C90.5089 176.864 103.62 163.753 103.62 147.579C103.62 131.406 90.5089 118.294 74.3354 118.294C58.1618 118.294 45.0505 131.406 45.0505 147.579C45.0505 163.753 58.1618 176.864 74.3354 176.864ZM74.3354 177.147C90.6652 177.147 103.903 163.909 103.903 147.579C103.903 131.249 90.6652 118.011 74.3354 118.011C58.0055 118.011 44.7676 131.249 44.7676 147.579C44.7676 163.909 58.0055 177.147 74.3354 177.147Z" fill="white"/>
<path fill-rule="evenodd" clip-rule="evenodd" d="M103.762 176.864C119.935 176.864 133.046 163.753 133.046 147.579C133.046 131.406 119.935 118.294 103.762 118.294C87.5881 118.294 74.4768 131.406 74.4768 147.579C74.4768 163.753 87.5881 176.864 103.762 176.864ZM103.762 177.147C120.091 177.147 133.329 163.909 133.329 147.579C133.329 131.249 120.091 118.011 103.762 118.011C87.4318 118.011 74.1939 131.249 74.1939 147.579C74.1939 163.909 87.4318 177.147 103.762 177.147Z" fill="white"/>
<path fill-rule="evenodd" clip-rule="evenodd" d="M133.188 176.864C149.361 176.864 162.473 163.753 162.473 147.579C162.473 131.406 149.361 118.294 133.188 118.294C117.014 118.294 103.903 131.406 103.903 147.579C103.903 163.753 117.014 176.864 133.188 176.864ZM133.188 177.147C149.518 177.147 162.756 163.909 162.756 147.579C162.756 131.249 149.518 118.011 133.188 118.011C116.858 118.011 103.62 131.249 103.62 147.579C103.62 163.909 116.858 177.147 133.188 177.147Z" fill="white"/>
</g>
<path d="M34.8848 104.431V92.0856H37.6687C40.5871 92.0856 42.4495 92.7 42.4303 94.5239C42.4303 95.3687 42.0271 96.6935 39.4927 97.1351C42.4303 97.5383 43.5055 98.9591 43.5055 100.361C43.5055 102.05 42.8911 104.431 37.8415 104.431H34.8848ZM36.7664 96.9623H37.8223C39.9151 96.9623 40.6063 95.8679 40.6063 94.5431C40.5871 92.9112 39.3967 92.4504 37.5727 92.4504H36.7664V96.9623ZM37.8415 104.066C40.6831 104.066 41.4319 102.108 41.4319 100.418C41.4319 98.1911 39.5887 97.3271 37.8223 97.3271H36.7664V104.066H37.8415Z" fill="white"/>
<path d="M52.8807 99.6311H46.6792V99.7079C46.6792 105.026 51.1719 104.258 52.3623 102.78L52.6503 102.953C52.6503 102.953 51.6327 104.661 49.1368 104.661C46.7176 104.661 44.7016 103.202 44.7208 100.226C44.74 97.7303 46.6024 95.9639 49.0408 95.9639C50.9991 95.9639 52.8807 97.1351 52.8807 99.2663V99.6311ZM48.8488 96.3095C47.7544 96.3095 46.8328 97.5575 46.6984 99.2663H50.9607C50.9607 97.4615 50.0967 96.3095 48.8488 96.3095Z" fill="white"/>
<path d="M56.2309 104.661C54.9062 104.661 53.7734 104.066 53.7734 102.626C53.7734 99.7847 58.9957 99.0551 58.9957 99.0551C58.9957 97.1543 58.9189 96.2903 57.7285 96.3095C56.6533 96.3095 56.5189 97.4615 56.5189 97.4615H54.5606C54.5606 97.4615 55.0021 95.9639 57.6901 95.9639C60.3397 95.9639 60.8965 96.8855 60.8965 98.7479V104.431H58.9957V103.49C58.9957 103.49 57.7285 104.661 56.2309 104.661ZM58.9957 99.4391C58.9957 99.4391 55.8277 100.322 55.8277 102.511C55.8277 104.7 58.2085 103.913 58.9957 103.068V99.4391Z" fill="white"/>
<path d="M69.9698 104.431H68.0882V103.029C67.6466 103.989 66.5138 104.661 65.3234 104.661C63.8834 104.661 62.4626 103.913 62.4626 101.666V96.1943H64.3442V101.858C64.3442 104.393 68.0882 104.642 68.0882 101.474V96.1943H69.9698V104.431Z" fill="white"/>
<path d="M71.96 96.6167H71.3456V96.2327H71.96V94.1399H73.8415V96.2327H75.2047V96.6167H73.8415V102.933C73.8415 103.74 74.0335 104.047 74.4367 104.066C74.7823 104.085 74.9743 103.932 74.9743 103.932L75.0703 104.201C74.7631 104.489 71.96 105.103 71.96 102.876V96.6167Z" fill="white"/>
<path d="M77.6047 94.6775C76.9903 94.6775 76.4719 94.1591 76.4719 93.5447C76.4719 92.9303 76.9903 92.412 77.6047 92.412C78.2191 92.412 78.7183 92.9303 78.7183 93.5447C78.7183 94.1591 78.2191 94.6775 77.6047 94.6775ZM76.6447 96.1943H78.5455L78.5647 104.431H76.6447V96.1943Z" fill="white"/>
<path d="M84.2878 93.5255C84.2878 93.5255 84.3454 92.2008 83.5582 92.2008C82.8094 92.2008 82.7326 93.2375 82.7326 94.7543V96.2327H83.827V96.5975H82.7326L82.7134 104.431H80.851V96.5975H80.371V96.2327H80.851V94.7543C80.851 92.9111 81.2158 91.8552 83.7502 91.8552C86.1885 91.8552 86.2269 93.5255 86.2269 93.5255H84.2878Z" fill="white"/>
<path d="M92.7321 104.431H90.8505V103.029C90.4089 103.989 89.2761 104.661 88.0857 104.661C86.6457 104.661 85.225 103.913 85.225 101.666V96.1943H87.1065V101.858C87.1065 104.393 90.8505 104.642 90.8505 101.474V96.1943H92.7321V104.431Z" fill="white"/>
<path d="M94.4155 91.8552H96.2971V104.431H94.4155V91.8552Z" fill="white"/>
<path d="M109.008 104.431H106.435C106.416 104.354 106.281 104.143 106.089 103.855C105.398 104.316 104.553 104.623 103.593 104.661C102.134 104.719 99.4654 104.335 98.947 101.743C98.4286 99.4583 99.9454 98.0375 101.04 97.2887L100.982 97.2119C98.947 94.5815 100.771 91.8552 103.536 91.8552C107.222 91.8552 107.145 94.8503 107.145 94.8503H105.187C105.187 94.8503 105.36 92.1048 103.401 92.1624C102.019 92.2008 100.963 94.1399 102.614 96.3863C103.421 97.4615 104.861 99.2855 106.8 101.82C107.145 100.975 107.241 99.9959 107.088 99.0551H108.413C108.451 100.303 108.105 101.589 107.376 102.588L107.664 102.972C107.683 102.991 108.528 104.162 109.008 104.431ZM103.901 103.97C104.611 103.913 105.206 103.682 105.686 103.317C104.649 101.897 102.749 99.4775 101.424 97.7687C99.5614 100.188 100.637 104.181 103.901 103.97Z" fill="white"/>
<path d="M112.225 92.0856H119.463V92.4504H114.087V96.9239H118.062V97.2887H114.087V104.431H112.225V92.0856Z" fill="white"/>
<path d="M119.462 96.1943H121.344V97.8455C121.344 97.8455 121.651 96.0791 123.302 96.0023C125.683 95.8679 125.76 97.4615 125.76 97.4615H123.821C123.821 97.4615 123.686 96.5783 122.861 96.6743C121.901 96.7703 121.344 98.3639 121.344 100.322V104.431H119.462V96.1943Z" fill="white"/>
<path d="M134.046 99.6311H127.844V99.7079C127.844 105.026 132.337 104.258 133.527 102.78L133.815 102.953C133.815 102.953 132.798 104.661 130.302 104.661C127.883 104.661 125.867 103.202 125.886 100.226C125.905 97.7303 127.767 95.9639 130.206 95.9639C132.164 95.9639 134.046 97.1351 134.046 99.2663V99.6311ZM130.014 96.3095C128.919 96.3095 127.998 97.5575 127.863 99.2663H132.126C132.126 97.4615 131.262 96.3095 130.014 96.3095Z" fill="white"/>
<path d="M143.289 99.6311H137.088V99.7079C137.088 105.026 141.581 104.258 142.771 102.78L143.059 102.953C143.059 102.953 142.041 104.661 139.546 104.661C137.126 104.661 135.11 103.202 135.13 100.226C135.149 97.7303 137.011 95.9639 139.45 95.9639C141.408 95.9639 143.289 97.1351 143.289 99.2663V99.6311ZM139.258 96.3095C138.163 96.3095 137.242 97.5575 137.107 99.2663H141.369C141.369 97.4615 140.506 96.3095 139.258 96.3095Z" fill="white"/>
<path d="M63.2928 79.8148V57.5929H68.304C73.5571 57.5929 76.9094 58.6989 76.8748 61.982C76.8748 63.5027 76.149 65.8873 71.5872 66.6821C76.8748 67.4079 78.8101 69.9653 78.8101 72.4882C78.8101 75.5294 77.7042 79.8148 68.615 79.8148H63.2928ZM66.6797 66.3711H68.5805C72.3475 66.3711 73.5916 64.4012 73.5916 62.0166C73.5571 59.079 71.4144 58.2496 68.1312 58.2496H66.6797V66.3711ZM68.615 79.1582C73.7299 79.1582 75.0777 75.6331 75.0777 72.5919C75.0777 68.5829 71.76 67.0277 68.5805 67.0277H66.6797V79.1582H68.615Z" fill="white"/>
<path d="M99.0114 79.8148H94.3804C94.3458 79.6766 94.1039 79.2964 93.7583 78.778C92.5141 79.6075 90.9935 80.1604 89.2655 80.2296C86.639 80.3332 81.8352 79.642 80.9021 74.9765C79.969 70.8639 82.6992 68.3065 84.6691 66.9586L84.5654 66.8204C80.9021 62.0857 84.1853 57.1782 89.1619 57.1782C95.7973 57.1782 95.6591 62.5695 95.6591 62.5695H92.134C92.134 62.5695 92.445 57.6275 88.9199 57.7312C86.4316 57.8003 84.5309 61.2908 87.503 65.3343C88.9545 67.2697 91.5465 70.5528 95.037 75.1147C95.6591 73.5941 95.8319 71.8315 95.5554 70.1381H97.94C98.0091 72.3845 97.3871 74.7 96.0738 76.4971L96.5922 77.1883C96.6268 77.2229 98.1474 79.331 99.0114 79.8148ZM89.8185 78.9854C91.0972 78.8817 92.1686 78.467 93.0325 77.8104C91.1663 75.253 87.7449 70.8984 85.3603 67.8226C82.008 72.1771 83.9433 79.3656 89.8185 78.9854Z" fill="white"/>
<path d="M102.038 57.5929H115.067V58.2496H105.39V66.302H112.544V66.9586H105.39V79.8148H102.038V57.5929Z" fill="white"/>
</g>
<defs>
<clipPath id="clip0_239_121">
<rect width="177" height="170" fill="white"/>
</clipPath>
</defs>
</svg>
