<svg width="93" height="40" viewBox="0 0 93 40" fill="none" xmlns="http://www.w3.org/2000/svg">
<path d="M0 39.8015V29.4028H2.38836C4.89203 29.4028 6.48976 29.9203 6.47329 31.4567C6.47329 32.1683 6.12739 33.2841 3.95315 33.6561C6.47329 33.9957 7.39569 35.1925 7.39569 36.373C7.39569 37.7962 6.8686 39.8015 2.53661 39.8015H0ZM1.6142 33.5105H2.52014C4.31553 33.5105 4.9085 32.5887 4.9085 31.4728C4.89203 30.0982 3.8708 29.7101 2.30601 29.7101H1.6142V33.5105ZM2.53661 39.4943C4.97439 39.4943 5.61677 37.8447 5.61677 36.4215C5.61677 34.5456 4.03551 33.8178 2.52014 33.8178H1.6142V39.4943H2.53661Z" fill="white"/>
<path d="M15.4387 35.7585H10.1184V35.8232C10.1184 40.3029 13.9727 39.656 14.9939 38.4107L15.241 38.5563C15.241 38.5563 14.368 39.9956 12.2267 39.9956C10.1513 39.9956 8.42181 38.7665 8.43829 36.2598C8.45476 34.1574 10.0525 32.6696 12.1444 32.6696C13.8245 32.6696 15.4387 33.6561 15.4387 35.4512V35.7585ZM11.9797 32.9607C11.0408 32.9607 10.2501 34.0119 10.1348 35.4512H13.7915C13.7915 33.931 13.0503 32.9607 11.9797 32.9607Z" fill="white"/>
<path d="M18.3128 39.9956C17.1763 39.9956 16.2045 39.4943 16.2045 38.2813C16.2045 35.8879 20.6847 35.2733 20.6847 35.2733C20.6847 33.6723 20.6188 32.9445 19.5976 32.9607C18.6752 32.9607 18.5599 33.931 18.5599 33.931H16.8798C16.8798 33.931 17.2586 32.6696 19.5646 32.6696C21.8377 32.6696 22.3154 33.4459 22.3154 35.0146V39.8015H20.6847V39.0091C20.6847 39.0091 19.5976 39.9956 18.3128 39.9956ZM20.6847 35.5968C20.6847 35.5968 17.9669 36.3407 17.9669 38.1843C17.9669 40.0279 20.0094 39.3649 20.6847 38.6533V35.5968Z" fill="white"/>
<path d="M30.0993 39.8015H28.4851V38.621C28.1063 39.4296 27.1344 39.9956 26.1132 39.9956C24.8778 39.9956 23.659 39.3649 23.659 37.4727V32.8637H25.2732V37.6345C25.2732 39.7692 28.4851 39.9794 28.4851 37.311V32.8637H30.0993V39.8015Z" fill="white"/>
<path d="M31.8067 33.2194H31.2796V32.896H31.8067V31.1332H33.4209V32.896H34.5904V33.2194H33.4209V38.5401C33.4209 39.2193 33.5856 39.4781 33.9315 39.4943C34.228 39.5104 34.3927 39.3811 34.3927 39.3811L34.4751 39.6075C34.2115 39.8501 31.8067 40.3676 31.8067 38.4916V33.2194Z" fill="white"/>
<path d="M36.6493 31.5861C36.1222 31.5861 35.6775 31.1494 35.6775 30.6319C35.6775 30.1144 36.1222 29.6777 36.6493 29.6777C37.1764 29.6777 37.6046 30.1144 37.6046 30.6319C37.6046 31.1494 37.1764 31.5861 36.6493 31.5861ZM35.8257 32.8637H37.4564L37.4729 39.8015H35.8257V32.8637Z" fill="white"/>
<path d="M42.3826 30.6157C42.3826 30.6157 42.4321 29.4998 41.7567 29.4998C41.1143 29.4998 41.0485 30.3731 41.0485 31.6507V32.896H41.9873V33.2033H41.0485L41.032 39.8015H39.4343V33.2033H39.0225V32.896H39.4343V31.6507C39.4343 30.0982 39.7472 29.2087 41.9214 29.2087C44.0133 29.2087 44.0463 30.6157 44.0463 30.6157H42.3826Z" fill="white"/>
<path d="M49.627 39.8015H48.0128V38.621C47.634 39.4296 46.6621 39.9956 45.6409 39.9956C44.4056 39.9956 43.1867 39.3649 43.1867 37.4727V32.8637H44.8009V37.6345C44.8009 39.7692 48.0128 39.9794 48.0128 37.311V32.8637H49.627V39.8015Z" fill="white"/>
<path d="M51.0712 29.2087H52.6854V39.8015H51.0712V29.2087Z" fill="white"/>
<path d="M63.5898 39.8015H61.3826C61.3661 39.7368 61.2508 39.559 61.0861 39.3164C60.4932 39.7045 59.7684 39.9633 58.9448 39.9956C57.693 40.0441 55.4035 39.7207 54.9587 37.5374C54.514 35.6129 55.8153 34.4162 56.7541 33.7855L56.7047 33.7208C54.9587 31.5052 56.5235 29.2087 58.8954 29.2087C62.0579 29.2087 61.9921 31.7316 61.9921 31.7316H60.312C60.312 31.7316 60.4602 29.419 58.7801 29.4675C57.5942 29.4998 56.6882 31.1332 58.1048 33.0254C58.7966 33.931 60.032 35.4674 61.6956 37.6021C61.9921 36.8905 62.0744 36.0658 61.9426 35.2733H63.0792C63.1121 36.3245 62.8156 37.408 62.1897 38.249L62.4368 38.5724C62.4533 38.5886 63.178 39.5751 63.5898 39.8015ZM59.2084 39.4134C59.8178 39.3649 60.3284 39.1708 60.7402 38.8635C59.8508 37.6668 58.2201 35.6291 57.0836 34.1898C55.4858 36.2275 56.4082 39.5913 59.2084 39.4134Z" fill="white"/>
<path d="M66.3498 29.4028H72.5595V29.7101H67.9475V33.4782H71.3571V33.7855H67.9475V39.8015H66.3498V29.4028Z" fill="white"/>
<path d="M72.5588 32.8637H74.173V34.2545C74.173 34.2545 74.4365 32.7666 75.8531 32.7019C77.8955 32.5887 77.9614 33.931 77.9614 33.931H76.2978C76.2978 33.931 76.1825 33.1871 75.4742 33.268C74.6506 33.3488 74.173 34.6911 74.173 36.3407V39.8015H72.5588V32.8637Z" fill="white"/>
<path d="M85.0699 35.7585H79.7496V35.8232C79.7496 40.3029 83.6039 39.656 84.6252 38.4107L84.8722 38.5563C84.8722 38.5563 83.9992 39.9956 81.858 39.9956C79.7826 39.9956 78.053 38.7665 78.0695 36.2598C78.086 34.1574 79.6837 32.6696 81.7756 32.6696C83.4557 32.6696 85.0699 33.6561 85.0699 35.4512V35.7585ZM81.6109 32.9607C80.672 32.9607 79.8814 34.0119 79.7661 35.4512H83.4227C83.4227 33.931 82.6815 32.9607 81.6109 32.9607Z" fill="white"/>
<path d="M93 35.7585H87.6797V35.8232C87.6797 40.3029 91.534 39.656 92.5553 38.4107L92.8023 38.5563C92.8023 38.5563 91.9294 39.9956 89.7881 39.9956C87.7127 39.9956 85.9832 38.7665 85.9996 36.2598C86.0161 34.1574 87.6138 32.6696 89.7057 32.6696C91.3858 32.6696 93 33.6561 93 35.4512V35.7585ZM89.541 32.9607C88.6021 32.9607 87.8115 34.0119 87.6962 35.4512H91.3529C91.3529 33.931 90.6116 32.9607 89.541 32.9607Z" fill="white"/>
<path d="M24.3712 19.067V0.349321H28.6702C33.1768 0.349321 36.0527 1.28084 36.0231 4.04629C36.0231 5.32713 35.4005 7.33572 31.4868 8.00525C36.0231 8.61656 37.6834 10.7707 37.6834 12.8957C37.6834 15.4574 36.7347 19.067 28.9371 19.067H24.3712ZM27.2767 7.74326H28.9074C32.1391 7.74326 33.2065 6.08399 33.2065 4.0754C33.1768 1.60105 31.3386 0.90241 28.522 0.90241H27.2767V7.74326ZM28.9371 18.514C33.3251 18.514 34.4814 15.5447 34.4814 12.9831C34.4814 9.6063 31.6351 8.29635 28.9074 8.29635H27.2767V18.514H28.9371Z" fill="white"/>
<path d="M55.014 19.067H51.0411C51.0114 18.9506 50.8039 18.6304 50.5074 18.1937C49.44 18.8924 48.1355 19.3581 46.6531 19.4164C44.3998 19.5037 40.2786 18.9215 39.4781 14.9916C38.6776 11.5276 41.0198 9.37342 42.7098 8.23813L42.6208 8.12169C39.4781 4.13362 42.2947 0 46.5641 0C52.2567 0 52.1381 4.54116 52.1381 4.54116H49.1139C49.1139 4.54116 49.3807 0.37843 46.3566 0.465759C44.2219 0.52398 42.5912 3.46409 45.141 6.86996C46.3862 8.50012 48.6099 11.2656 51.6044 15.1081C52.1381 13.8272 52.2863 12.3426 52.0491 10.9162H54.0949C54.1542 12.8084 53.6205 14.7588 52.4938 16.2725L52.9386 16.8547C52.9682 16.8838 54.2728 18.6595 55.014 19.067ZM47.1274 18.3684C48.2244 18.2811 49.1435 17.9318 49.8848 17.3787C48.2837 15.2245 45.3485 11.5567 43.3028 8.96588C40.4268 12.6337 42.0872 18.6886 47.1274 18.3684Z" fill="white"/>
<path d="M57.6101 0.349321H68.7876V0.90241H60.486V7.68504H66.6233V8.23813H60.486V19.067H57.6101V0.349321Z" fill="white"/>
</svg>
