<svg width="62" height="62" viewBox="0 0 62 62" fill="none" xmlns="http://www.w3.org/2000/svg">
<circle cx="30.5349" cy="30.5349" r="30.5349" fill="black"/>
<mask id="mask0_405_1143" style="mask-type:alpha" maskUnits="userSpaceOnUse" x="0" y="0" width="62" height="62">
<circle cx="30.5349" cy="30.5349" r="30.5349" fill="#1E1E1E"/>
</mask>
<g mask="url(#mask0_405_1143)">
<path fill-rule="evenodd" clip-rule="evenodd" d="M10.7287 13.0773C17.9862 13.0773 23.8695 7.19393 23.8695 -0.0635309C23.8695 -7.321 17.9862 -13.2043 10.7287 -13.2043C3.47124 -13.2043 -2.4121 -7.321 -2.4121 -0.0635309C-2.4121 7.19393 3.47124 13.0773 10.7287 13.0773ZM10.7287 13.2042C18.0563 13.2042 23.9965 7.26406 23.9965 -0.0635309C23.9965 -7.39112 18.0563 -13.3313 10.7287 -13.3313C3.40112 -13.3313 -2.53906 -7.39112 -2.53906 -0.0635309C-2.53906 7.26406 3.40112 13.2042 10.7287 13.2042Z" fill="white"/>
<path fill-rule="evenodd" clip-rule="evenodd" d="M23.933 13.0773C31.1905 13.0773 37.0738 7.19393 37.0738 -0.0635309C37.0738 -7.321 31.1905 -13.2043 23.933 -13.2043C16.6755 -13.2043 10.7922 -7.321 10.7922 -0.0635309C10.7922 7.19393 16.6755 13.0773 23.933 13.0773ZM23.933 13.2042C31.2606 13.2042 37.2008 7.26406 37.2008 -0.0635309C37.2008 -7.39112 31.2606 -13.3313 23.933 -13.3313C16.6054 -13.3313 10.6652 -7.39112 10.6652 -0.0635309C10.6652 7.26406 16.6054 13.2042 23.933 13.2042Z" fill="white"/>
<path fill-rule="evenodd" clip-rule="evenodd" d="M37.1373 13.0773C44.3948 13.0773 50.2781 7.19393 50.2781 -0.0635309C50.2781 -7.321 44.3948 -13.2043 37.1373 -13.2043C29.8798 -13.2043 23.9965 -7.321 23.9965 -0.0635309C23.9965 7.19393 29.8798 13.0773 37.1373 13.0773ZM37.1373 13.2042C44.4649 13.2042 50.4051 7.26406 50.4051 -0.0635309C50.4051 -7.39112 44.4649 -13.3313 37.1373 -13.3313C29.8097 -13.3313 23.8695 -7.39112 23.8695 -0.0635309C23.8695 7.26406 29.8097 13.2042 37.1373 13.2042Z" fill="white"/>
<path fill-rule="evenodd" clip-rule="evenodd" d="M50.3416 13.0773C57.599 13.0773 63.4824 7.19393 63.4824 -0.0635309C63.4824 -7.321 57.599 -13.2043 50.3416 -13.2043C43.0841 -13.2043 37.2008 -7.321 37.2008 -0.0635309C37.2008 7.19393 43.0841 13.0773 50.3416 13.0773ZM50.3416 13.2042C57.6692 13.2042 63.6093 7.26406 63.6093 -0.0635309C63.6093 -7.39112 57.6692 -13.3313 50.3416 -13.3313C43.014 -13.3313 37.0738 -7.39112 37.0738 -0.0635309C37.0738 7.26406 43.014 13.2042 50.3416 13.2042Z" fill="white"/>
<path fill-rule="evenodd" clip-rule="evenodd" d="M10.7287 71.7349C17.9862 71.7349 23.8695 65.8515 23.8695 58.5941C23.8695 51.3366 17.9862 45.4533 10.7287 45.4533C3.47124 45.4533 -2.4121 51.3366 -2.4121 58.5941C-2.4121 65.8515 3.47124 71.7349 10.7287 71.7349ZM10.7287 71.8618C18.0563 71.8618 23.9965 65.9216 23.9965 58.5941C23.9965 51.2665 18.0563 45.3263 10.7287 45.3263C3.40112 45.3263 -2.53906 51.2665 -2.53906 58.5941C-2.53906 65.9216 3.40112 71.8618 10.7287 71.8618Z" fill="white"/>
<path fill-rule="evenodd" clip-rule="evenodd" d="M23.933 71.7349C31.1905 71.7349 37.0738 65.8515 37.0738 58.5941C37.0738 51.3366 31.1905 45.4533 23.933 45.4533C16.6755 45.4533 10.7922 51.3366 10.7922 58.5941C10.7922 65.8515 16.6755 71.7349 23.933 71.7349ZM23.933 71.8618C31.2606 71.8618 37.2008 65.9216 37.2008 58.5941C37.2008 51.2665 31.2606 45.3263 23.933 45.3263C16.6054 45.3263 10.6652 51.2665 10.6652 58.5941C10.6652 65.9216 16.6054 71.8618 23.933 71.8618Z" fill="white"/>
<path fill-rule="evenodd" clip-rule="evenodd" d="M37.1373 71.7349C44.3948 71.7349 50.2781 65.8515 50.2781 58.5941C50.2781 51.3366 44.3948 45.4533 37.1373 45.4533C29.8798 45.4533 23.9965 51.3366 23.9965 58.5941C23.9965 65.8515 29.8798 71.7349 37.1373 71.7349ZM37.1373 71.8618C44.4649 71.8618 50.4051 65.9216 50.4051 58.5941C50.4051 51.2665 44.4649 45.3263 37.1373 45.3263C29.8097 45.3263 23.8695 51.2665 23.8695 58.5941C23.8695 65.9216 29.8097 71.8618 37.1373 71.8618Z" fill="white"/>
<path fill-rule="evenodd" clip-rule="evenodd" d="M50.3416 71.7349C57.599 71.7349 63.4824 65.8515 63.4824 58.5941C63.4824 51.3366 57.599 45.4533 50.3416 45.4533C43.0841 45.4533 37.2008 51.3366 37.2008 58.5941C37.2008 65.8515 43.0841 71.7349 50.3416 71.7349ZM50.3416 71.8618C57.6692 71.8618 63.6093 65.9216 63.6093 58.5941C63.6093 51.2665 57.6692 45.3263 50.3416 45.3263C43.014 45.3263 37.0738 51.2665 37.0738 58.5941C37.0738 65.9216 43.014 71.8618 50.3416 71.8618Z" fill="white"/>
</g>
<path d="M6.23047 39.2324V33.6927H7.47971C8.78925 33.6927 9.62495 33.9684 9.61633 34.7869C9.61633 35.1659 9.43541 35.7604 8.29817 35.9586C9.61633 36.1395 10.0988 36.777 10.0988 37.4059C10.0988 38.1641 9.82311 39.2324 7.55725 39.2324H6.23047ZM7.07478 35.881H7.54863C8.48771 35.881 8.79787 35.3899 8.79787 34.7955C8.78925 34.0632 8.2551 33.8564 7.43663 33.8564H7.07478V35.881ZM7.55725 39.0687C8.83233 39.0687 9.16833 38.19 9.16833 37.4318C9.16833 36.4324 8.34125 36.0447 7.54863 36.0447H7.07478V39.0687H7.55725Z" fill="white"/>
<path d="M14.3057 37.0786H11.5229V37.113C11.5229 39.4995 13.5389 39.1549 14.0731 38.4915L14.2023 38.569C14.2023 38.569 13.7457 39.3358 12.6257 39.3358C11.5401 39.3358 10.6355 38.681 10.6441 37.3456C10.6527 36.2256 11.4884 35.433 12.5826 35.433C13.4614 35.433 14.3057 35.9586 14.3057 36.9149V37.0786ZM12.4964 35.5881C12.0054 35.5881 11.5918 36.1481 11.5315 36.9149H13.4441C13.4441 36.105 13.0565 35.5881 12.4964 35.5881Z" fill="white"/>
<path d="M15.809 39.3358C15.2146 39.3358 14.7062 39.0687 14.7062 38.4226C14.7062 37.1475 17.0496 36.8201 17.0496 36.8201C17.0496 35.9672 17.0152 35.5795 16.481 35.5881C15.9986 35.5881 15.9382 36.105 15.9382 36.105H15.0595C15.0595 36.105 15.2576 35.433 16.4638 35.433C17.6527 35.433 17.9026 35.8466 17.9026 36.6823V39.2324H17.0496V38.8103C17.0496 38.8103 16.481 39.3358 15.809 39.3358ZM17.0496 36.9924C17.0496 36.9924 15.6281 37.3887 15.6281 38.3709C15.6281 39.353 16.6964 38.9998 17.0496 38.6207V36.9924Z" fill="white"/>
<path d="M21.974 39.2324H21.1297V38.6035C20.9315 39.0343 20.4232 39.3358 19.889 39.3358C19.2429 39.3358 18.6053 38.9998 18.6053 37.9918V35.5364H19.4496V38.078C19.4496 39.2152 21.1297 39.3272 21.1297 37.9056V35.5364H21.974V39.2324Z" fill="white"/>
<path d="M22.867 35.7259H22.5913V35.5536H22.867V34.6145H23.7113V35.5536H24.323V35.7259H23.7113V38.5604C23.7113 38.9223 23.7975 39.0601 23.9784 39.0687C24.1335 39.0773 24.2196 39.0084 24.2196 39.0084L24.2627 39.129C24.1249 39.2583 22.867 39.534 22.867 38.5346V35.7259Z" fill="white"/>
<path d="M25.3999 34.8558C25.1243 34.8558 24.8916 34.6232 24.8916 34.3475C24.8916 34.0718 25.1243 33.8392 25.3999 33.8392C25.6756 33.8392 25.8996 34.0718 25.8996 34.3475C25.8996 34.6232 25.6756 34.8558 25.3999 34.8558ZM24.9692 35.5364H25.8221L25.8307 39.2324H24.9692V35.5364Z" fill="white"/>
<path d="M28.3988 34.3389C28.3988 34.3389 28.4246 33.7444 28.0714 33.7444C27.7354 33.7444 27.7009 34.2096 27.7009 34.8902V35.5536H28.192V35.7173H27.7009L27.6923 39.2324H26.8566V35.7173H26.6412V35.5536H26.8566V34.8902C26.8566 34.0632 27.0203 33.5893 28.1576 33.5893C29.2517 33.5893 29.269 34.3389 29.269 34.3389H28.3988Z" fill="white"/>
<path d="M32.188 39.2324H31.3437V38.6035C31.1455 39.0343 30.6372 39.3358 30.103 39.3358C29.4569 39.3358 28.8193 38.9998 28.8193 37.9918V35.5364H29.6636V38.078C29.6636 39.2152 31.3437 39.3272 31.3437 37.9056V35.5364H32.188V39.2324Z" fill="white"/>
<path d="M32.9434 33.5893H33.7877V39.2324H32.9434V33.5893Z" fill="white"/>
<path d="M39.4912 39.2324H38.3368C38.3281 39.198 38.2678 39.1032 38.1817 38.974C37.8715 39.1807 37.4925 39.3186 37.0617 39.3358C36.4069 39.3617 35.2094 39.1893 34.9767 38.0263C34.7441 37.001 35.4247 36.3635 35.9158 36.0275L35.89 35.993C34.9767 34.8127 35.7952 33.5893 37.0358 33.5893C38.69 33.5893 38.6555 34.9333 38.6555 34.9333H37.7768C37.7768 34.9333 37.8543 33.7013 36.9755 33.7272C36.3552 33.7444 35.8814 34.6145 36.6223 35.6226C36.9841 36.105 37.6303 36.9235 38.5005 38.0607C38.6555 37.6816 38.6986 37.2423 38.6297 36.8201H39.2242C39.2414 37.3801 39.0863 37.9573 38.7589 38.4053L38.8882 38.5776C38.8968 38.5863 39.2758 39.1118 39.4912 39.2324ZM37.1995 39.0257C37.5183 38.9998 37.7854 38.8964 38.0008 38.7327C37.5355 38.0952 36.6826 37.0096 36.0881 36.2429C35.2524 37.3284 35.7349 39.1204 37.1995 39.0257Z" fill="white"/>
<path d="M40.9349 33.6927H44.1829V33.8564H41.7706V35.8638H43.554V36.0275H41.7706V39.2324H40.9349V33.6927Z" fill="white"/>
<path d="M44.1825 35.5364H45.0268V36.2773C45.0268 36.2773 45.1646 35.4847 45.9056 35.4502C46.9739 35.3899 47.0083 36.105 47.0083 36.105H46.1382C46.1382 36.105 46.0779 35.7087 45.7074 35.7518C45.2766 35.7949 45.0268 36.5099 45.0268 37.3887V39.2324H44.1825V35.5364Z" fill="white"/>
<path d="M50.7264 37.0786H47.9437V37.113C47.9437 39.4995 49.9597 39.1549 50.4938 38.4915L50.6231 38.569C50.6231 38.569 50.1664 39.3358 49.0464 39.3358C47.9609 39.3358 47.0563 38.681 47.0649 37.3456C47.0735 36.2256 47.9092 35.433 49.0033 35.433C49.8821 35.433 50.7264 35.9586 50.7264 36.9149V37.0786ZM48.9172 35.5881C48.4261 35.5881 48.0126 36.1481 47.9523 36.9149H49.8649C49.8649 36.105 49.4772 35.5881 48.9172 35.5881Z" fill="white"/>
<path d="M54.8743 37.0786H52.0915V37.113C52.0915 39.4995 54.1075 39.1549 54.6417 38.4915L54.7709 38.569C54.7709 38.569 54.3143 39.3358 53.1943 39.3358C52.1087 39.3358 51.2041 38.681 51.2127 37.3456C51.2214 36.2256 52.057 35.433 53.1512 35.433C54.03 35.433 54.8743 35.9586 54.8743 36.9149V37.0786ZM53.0651 35.5881C52.574 35.5881 52.1604 36.1481 52.1001 36.9149H54.0128C54.0128 36.105 53.6251 35.5881 53.0651 35.5881Z" fill="white"/>
<path d="M18.9779 28.1865V18.215H21.2265C23.5837 18.215 25.0879 18.7113 25.0724 20.1845C25.0724 20.8669 24.7468 21.9369 22.6997 22.2936C25.0724 22.6192 25.9409 23.7668 25.9409 24.8989C25.9409 26.2636 25.4446 28.1865 21.3661 28.1865H18.9779ZM20.4976 22.154H21.3505C23.0409 22.154 23.5992 21.2701 23.5992 20.2C23.5837 18.8819 22.6222 18.5097 21.1489 18.5097H20.4976V22.154ZM21.3661 27.8919C23.6612 27.8919 24.266 26.3101 24.266 24.9454C24.266 23.1465 22.7773 22.4486 21.3505 22.4486H20.4976V27.8919H21.3661Z" fill="white"/>
<path d="M35.0056 28.1865H32.9276C32.9121 28.1245 32.8035 27.9539 32.6485 27.7213C32.0902 28.0935 31.4078 28.3416 30.6324 28.3726C29.4538 28.4191 27.2983 28.109 26.8796 26.0154C26.4608 24.17 27.686 23.0224 28.5699 22.4176L28.5234 22.3556C26.8796 20.231 28.3528 18.0289 30.5859 18.0289C33.5634 18.0289 33.5014 20.4481 33.5014 20.4481H31.9196C31.9196 20.4481 32.0592 18.2305 30.4774 18.2771C29.3608 18.3081 28.5079 19.8744 29.8415 21.6888C30.4929 22.5572 31.656 24.0304 33.2222 26.0775C33.5014 25.3951 33.5789 24.6042 33.4549 23.8443H34.5249C34.5559 24.8524 34.2768 25.8914 33.6875 26.6978L33.9201 27.0079C33.9356 27.0234 34.6179 27.9694 35.0056 28.1865ZM30.8806 27.8143C31.4544 27.7678 31.9351 27.5817 32.3228 27.2871C31.4854 26.1395 29.9501 24.1855 28.8801 22.8053C27.3758 24.7593 28.2442 27.9849 30.8806 27.8143Z" fill="white"/>
<path d="M36.3635 18.215H42.21V18.5097H37.8678V22.123H41.0779V22.4176H37.8678V28.1865H36.3635V18.215Z" fill="white"/>
</svg>
