<svg width="137" height="137" viewBox="0 0 137 137" fill="none" xmlns="http://www.w3.org/2000/svg">
<circle cx="68.0483" cy="68.0483" r="68.0483" fill="black"/>
<mask id="mask0_405_1129" style="mask-type:alpha" maskUnits="userSpaceOnUse" x="0" y="0" width="137" height="137">
<circle cx="68.0483" cy="68.0483" r="68.0483" fill="#1E1E1E"/>
</mask>
<g mask="url(#mask0_405_1129)">
<path fill-rule="evenodd" clip-rule="evenodd" d="M23.9091 29.1432C40.0826 29.1432 53.1939 16.032 53.1939 -0.141598C53.1939 -16.3152 40.0826 -29.4264 23.9091 -29.4264C7.73551 -29.4264 -5.37575 -16.3152 -5.37575 -0.141598C-5.37575 16.032 7.73551 29.1432 23.9091 29.1432ZM23.9091 29.4262C40.2389 29.4262 53.4768 16.1882 53.4768 -0.141598C53.4768 -16.4714 40.2389 -29.7094 23.9091 -29.7094C7.57925 -29.7094 -5.65869 -16.4714 -5.65869 -0.141598C-5.65869 16.1882 7.57925 29.4262 23.9091 29.4262Z" fill="white"/>
<path fill-rule="evenodd" clip-rule="evenodd" d="M53.3354 29.1432C69.5089 29.1432 82.6202 16.032 82.6202 -0.141598C82.6202 -16.3152 69.5089 -29.4264 53.3354 -29.4264C37.1618 -29.4264 24.0505 -16.3152 24.0505 -0.141598C24.0505 16.032 37.1618 29.1432 53.3354 29.1432ZM53.3354 29.4262C69.6652 29.4262 82.9031 16.1882 82.9031 -0.141598C82.9031 -16.4714 69.6652 -29.7094 53.3354 -29.7094C37.0055 -29.7094 23.7676 -16.4714 23.7676 -0.141598C23.7676 16.1882 37.0055 29.4262 53.3354 29.4262Z" fill="white"/>
<path fill-rule="evenodd" clip-rule="evenodd" d="M82.7616 29.1432C98.9352 29.1432 112.046 16.032 112.046 -0.141598C112.046 -16.3152 98.9352 -29.4264 82.7616 -29.4264C66.5881 -29.4264 53.4768 -16.3152 53.4768 -0.141598C53.4768 16.032 66.5881 29.1432 82.7616 29.1432ZM82.7616 29.4262C99.0915 29.4262 112.329 16.1882 112.329 -0.141598C112.329 -16.4714 99.0915 -29.7094 82.7616 -29.7094C66.4318 -29.7094 53.1939 -16.4714 53.1939 -0.141598C53.1939 16.1882 66.4318 29.4262 82.7616 29.4262Z" fill="white"/>
<path fill-rule="evenodd" clip-rule="evenodd" d="M112.188 29.1432C128.361 29.1432 141.473 16.032 141.473 -0.141598C141.473 -16.3152 128.361 -29.4264 112.188 -29.4264C96.0144 -29.4264 82.9031 -16.3152 82.9031 -0.141598C82.9031 16.032 96.0144 29.1432 112.188 29.1432ZM112.188 29.4262C128.518 29.4262 141.756 16.1882 141.756 -0.141598C141.756 -16.4714 128.518 -29.7094 112.188 -29.7094C95.8581 -29.7094 82.6202 -16.4714 82.6202 -0.141598C82.6202 16.1882 95.8581 29.4262 112.188 29.4262Z" fill="white"/>
<path fill-rule="evenodd" clip-rule="evenodd" d="M23.9091 159.864C40.0826 159.864 53.1939 146.753 53.1939 130.579C53.1939 114.406 40.0826 101.294 23.9091 101.294C7.73551 101.294 -5.37575 114.406 -5.37575 130.579C-5.37575 146.753 7.73551 159.864 23.9091 159.864ZM23.9091 160.147C40.2389 160.147 53.4768 146.909 53.4768 130.579C53.4768 114.249 40.2389 101.011 23.9091 101.011C7.57925 101.011 -5.65869 114.249 -5.65869 130.579C-5.65869 146.909 7.57925 160.147 23.9091 160.147Z" fill="white"/>
<path fill-rule="evenodd" clip-rule="evenodd" d="M53.3354 159.864C69.5089 159.864 82.6202 146.753 82.6202 130.579C82.6202 114.406 69.5089 101.294 53.3354 101.294C37.1618 101.294 24.0505 114.406 24.0505 130.579C24.0505 146.753 37.1618 159.864 53.3354 159.864ZM53.3354 160.147C69.6652 160.147 82.9031 146.909 82.9031 130.579C82.9031 114.249 69.6652 101.011 53.3354 101.011C37.0055 101.011 23.7676 114.249 23.7676 130.579C23.7676 146.909 37.0055 160.147 53.3354 160.147Z" fill="white"/>
<path fill-rule="evenodd" clip-rule="evenodd" d="M82.7616 159.864C98.9352 159.864 112.046 146.753 112.046 130.579C112.046 114.406 98.9352 101.294 82.7616 101.294C66.5881 101.294 53.4768 114.406 53.4768 130.579C53.4768 146.753 66.5881 159.864 82.7616 159.864ZM82.7616 160.147C99.0915 160.147 112.329 146.909 112.329 130.579C112.329 114.249 99.0915 101.011 82.7616 101.011C66.4318 101.011 53.1939 114.249 53.1939 130.579C53.1939 146.909 66.4318 160.147 82.7616 160.147Z" fill="white"/>
<path fill-rule="evenodd" clip-rule="evenodd" d="M112.188 159.864C128.361 159.864 141.473 146.753 141.473 130.579C141.473 114.406 128.361 101.294 112.188 101.294C96.0144 101.294 82.9031 114.406 82.9031 130.579C82.9031 146.753 96.0144 159.864 112.188 159.864ZM112.188 160.147C128.518 160.147 141.756 146.909 141.756 130.579C141.756 114.249 128.518 101.011 112.188 101.011C95.8581 101.011 82.6202 114.249 82.6202 130.579C82.6202 146.909 95.8581 160.147 112.188 160.147Z" fill="white"/>
</g>
<path d="M13.8848 87.431V75.0856H16.6687C19.5871 75.0856 21.4495 75.6999 21.4303 77.5239C21.4303 78.3687 21.0271 79.6935 18.4927 80.1351C21.4303 80.5383 22.5055 81.9591 22.5055 83.3607C22.5055 85.0503 21.8911 87.431 16.8415 87.431H13.8848ZM15.7664 79.9623H16.8223C18.9151 79.9623 19.6063 78.8679 19.6063 77.5431C19.5871 75.9111 18.3967 75.4503 16.5727 75.4503H15.7664V79.9623ZM16.8415 87.0662C19.6831 87.0662 20.4319 85.1079 20.4319 83.4183C20.4319 81.1911 18.5887 80.3271 16.8223 80.3271H15.7664V87.0662H16.8415Z" fill="white"/>
<path d="M31.8807 82.6311H25.6792V82.7079C25.6792 88.0262 30.1719 87.2583 31.3623 85.7799L31.6503 85.9527C31.6503 85.9527 30.6327 87.6614 28.1368 87.6614C25.7176 87.6614 23.7016 86.2023 23.7208 83.2263C23.74 80.7303 25.6024 78.9639 28.0408 78.9639C29.9991 78.9639 31.8807 80.1351 31.8807 82.2663V82.6311ZM27.8488 79.3095C26.7544 79.3095 25.8328 80.5575 25.6984 82.2663H29.9607C29.9607 80.4615 29.0967 79.3095 27.8488 79.3095Z" fill="white"/>
<path d="M35.2309 87.6614C33.9062 87.6614 32.7734 87.0663 32.7734 85.6263C32.7734 82.7847 37.9957 82.0551 37.9957 82.0551C37.9957 80.1543 37.9189 79.2903 36.7285 79.3095C35.6533 79.3095 35.5189 80.4615 35.5189 80.4615H33.5606C33.5606 80.4615 34.0022 78.9639 36.6901 78.9639C39.3397 78.9639 39.8965 79.8855 39.8965 81.7479V87.431H37.9957V86.4903C37.9957 86.4903 36.7285 87.6614 35.2309 87.6614ZM37.9957 82.4391C37.9957 82.4391 34.8277 83.3223 34.8277 85.5111C34.8277 87.6998 37.2085 86.9127 37.9957 86.0679V82.4391Z" fill="white"/>
<path d="M48.9698 87.431H47.0882V86.0295C46.6466 86.9895 45.5138 87.6614 44.3234 87.6614C42.8834 87.6614 41.4626 86.9127 41.4626 84.6663V79.1943H43.3442V84.8583C43.3442 87.3927 47.0882 87.6423 47.0882 84.4743V79.1943H48.9698V87.431Z" fill="white"/>
<path d="M50.96 79.6167H50.3456V79.2327H50.96V77.1399H52.8415V79.2327H54.2047V79.6167H52.8415V85.9335C52.8415 86.7399 53.0335 87.0471 53.4367 87.0662C53.7823 87.0854 53.9743 86.9319 53.9743 86.9319L54.0703 87.2006C53.7631 87.4886 50.96 88.103 50.96 85.8759V79.6167Z" fill="white"/>
<path d="M56.6047 77.6775C55.9903 77.6775 55.4719 77.1591 55.4719 76.5447C55.4719 75.9303 55.9903 75.4119 56.6047 75.4119C57.2191 75.4119 57.7183 75.9303 57.7183 76.5447C57.7183 77.1591 57.2191 77.6775 56.6047 77.6775ZM55.6447 79.1943H57.5455L57.5647 87.431H55.6447V79.1943Z" fill="white"/>
<path d="M63.2878 76.5255C63.2878 76.5255 63.3454 75.2008 62.5582 75.2008C61.8094 75.2008 61.7326 76.2375 61.7326 77.7543V79.2327H62.827V79.5975H61.7326L61.7134 87.431H59.851V79.5975H59.371V79.2327H59.851V77.7543C59.851 75.9111 60.2158 74.8552 62.7502 74.8552C65.1885 74.8552 65.2269 76.5255 65.2269 76.5255H63.2878Z" fill="white"/>
<path d="M71.7321 87.431H69.8505V86.0295C69.4089 86.9895 68.2761 87.6614 67.0857 87.6614C65.6457 87.6614 64.225 86.9127 64.225 84.6663V79.1943H66.1065V84.8583C66.1065 87.3927 69.8505 87.6423 69.8505 84.4743V79.1943H71.7321V87.431Z" fill="white"/>
<path d="M73.4155 74.8552H75.2971V87.431H73.4155V74.8552Z" fill="white"/>
<path d="M88.0077 87.431H85.4349C85.4157 87.3542 85.2813 87.1431 85.0893 86.8551C84.3981 87.3159 83.5533 87.623 82.5934 87.6614C81.1342 87.719 78.4654 87.335 77.947 84.7431C77.4286 82.4583 78.9454 81.0375 80.0398 80.2887L79.9822 80.2119C77.947 77.5815 79.771 74.8552 82.5358 74.8552C86.2221 74.8552 86.1453 77.8503 86.1453 77.8503H84.1869C84.1869 77.8503 84.3597 75.1048 82.4014 75.1623C81.019 75.2008 79.963 77.1399 81.6142 79.3863C82.4206 80.4615 83.8605 82.2855 85.7997 84.8199C86.1453 83.9751 86.2413 82.9959 86.0877 82.0551H87.4125C87.4509 83.3031 87.1053 84.5895 86.3757 85.5879L86.6637 85.9719C86.6829 85.9911 87.5277 87.1623 88.0077 87.431ZM82.9006 86.9703C83.6109 86.9127 84.2061 86.6823 84.6861 86.3175C83.6493 84.8967 81.7486 82.4775 80.4238 80.7687C78.5614 83.1879 79.6366 87.1814 82.9006 86.9703Z" fill="white"/>
<path d="M91.2249 75.0856H98.4632V75.4503H93.0873V79.9239H97.0616V80.2887H93.0873V87.431H91.2249V75.0856Z" fill="white"/>
<path d="M98.4623 79.1943H100.344V80.8455C100.344 80.8455 100.651 79.0791 102.302 79.0023C104.683 78.8679 104.76 80.4615 104.76 80.4615H102.821C102.821 80.4615 102.686 79.5783 101.861 79.6743C100.901 79.7703 100.344 81.3639 100.344 83.3223V87.431H98.4623V79.1943Z" fill="white"/>
<path d="M113.046 82.6311H106.844V82.7079C106.844 88.0262 111.337 87.2583 112.527 85.7799L112.815 85.9527C112.815 85.9527 111.798 87.6614 109.302 87.6614C106.883 87.6614 104.867 86.2023 104.886 83.2263C104.905 80.7303 106.767 78.9639 109.206 78.9639C111.164 78.9639 113.046 80.1351 113.046 82.2663V82.6311ZM109.014 79.3095C107.919 79.3095 106.998 80.5575 106.863 82.2663H111.126C111.126 80.4615 110.262 79.3095 109.014 79.3095Z" fill="white"/>
<path d="M122.289 82.6311H116.088V82.7079C116.088 88.0262 120.581 87.2583 121.771 85.7799L122.059 85.9527C122.059 85.9527 121.041 87.6614 118.546 87.6614C116.126 87.6614 114.11 86.2023 114.13 83.2263C114.149 80.7303 116.011 78.9639 118.45 78.9639C120.408 78.9639 122.289 80.1351 122.289 82.2663V82.6311ZM118.258 79.3095C117.163 79.3095 116.242 80.5575 116.107 82.2663H120.369C120.369 80.4615 119.506 79.3095 118.258 79.3095Z" fill="white"/>
<path d="M42.2928 62.8148V40.5929H47.304C52.5571 40.5929 55.9094 41.6989 55.8748 44.982C55.8748 46.5026 55.149 48.8873 50.5872 49.6821C55.8748 50.4079 57.8101 52.9653 57.8101 55.4882C57.8101 58.5294 56.7042 62.8148 47.615 62.8148H42.2928ZM45.6797 49.3711H47.5805C51.3475 49.3711 52.5916 47.4012 52.5916 45.0166C52.5571 42.079 50.4144 41.2496 47.1312 41.2496H45.6797V49.3711ZM47.615 62.1582C52.7299 62.1582 54.0777 58.6331 54.0777 55.5919C54.0777 51.5829 50.76 50.0277 47.5805 50.0277H45.6797V62.1582H47.615Z" fill="white"/>
<path d="M78.0114 62.8148H73.3804C73.3458 62.6766 73.1039 62.2964 72.7583 61.778C71.5141 62.6075 69.9935 63.1604 68.2655 63.2295C65.639 63.3332 60.8352 62.642 59.9021 57.9765C58.969 53.8639 61.6992 51.3064 63.6691 49.9586L63.5654 49.8204C59.9021 45.0857 63.1853 40.1782 68.1619 40.1782C74.7973 40.1782 74.6591 45.5695 74.6591 45.5695H71.134C71.134 45.5695 71.445 40.6275 67.9199 40.7312C65.4316 40.8003 63.5309 44.2908 66.503 48.3343C67.9545 50.2697 70.5465 53.5528 74.037 58.1147C74.6591 56.5941 74.8319 54.8315 74.5554 53.1381H76.94C77.0091 55.3845 76.3871 57.7 75.0738 59.4971L75.5922 60.1883C75.6268 60.2229 77.1474 62.331 78.0114 62.8148ZM68.8185 61.9854C70.0972 61.8817 71.1686 61.467 72.0325 60.8104C70.1663 58.253 66.7449 53.8984 64.3603 50.8226C61.008 55.1771 62.9433 62.3656 68.8185 61.9854Z" fill="white"/>
<path d="M81.0375 40.5929H94.0665V41.2496H84.3898V49.302H91.5437V49.9586H84.3898V62.8148H81.0375V40.5929Z" fill="white"/>
</svg>
