<svg width="18" height="25" viewBox="0 0 18 25" fill="none" xmlns="http://www.w3.org/2000/svg">
<path fill-rule="evenodd" clip-rule="evenodd" d="M8.71292 0.00952148C13.5251 0.00952148 17.4261 3.91522 17.4261 8.7332C17.4261 10.4094 16.9536 11.9749 16.1348 13.3043C15.153 14.9327 14.1709 16.5614 13.1891 18.1901C11.993 20.1364 11.0252 21.7113 9.82963 23.6578C8.77527 25.3737 8.7041 25.4159 7.64422 23.6912C6.45442 21.7546 5.45413 20.1267 4.26432 18.1901C3.28445 16.5796 2.30513 14.9694 1.32526 13.3592C0.485798 12.0182 0 10.4325 0 8.7332C0 3.91522 3.90101 0.00952148 8.71292 0.00952148ZM8.71292 4.38336C10.8702 4.38336 12.6192 6.13428 12.6192 8.29403C12.6192 10.4538 10.8705 12.2047 8.71292 12.2047C6.55566 12.2047 4.80695 10.4538 4.80695 8.29403C4.80695 6.13428 6.55566 4.38336 8.71292 4.38336Z" fill="white"/>
</svg>
