<svg width="18" height="18" viewBox="0 0 18 18" fill="none" xmlns="http://www.w3.org/2000/svg">
<g filter="url(#filter0_i_630_209)">
<path d="M16.0848 9.98829C16.1256 9.68182 16.1534 9.3712 16.1534 9.05408C16.1534 5.13325 12.9745 1.95435 9.05368 1.95435C8.73656 1.95435 8.42595 1.98215 8.11948 2.02298C7.44382 1.60705 6.65102 1.3627 5.79964 1.3627C3.34905 1.3627 1.3623 3.34944 1.3623 5.80004C1.3623 6.65141 1.60665 7.44422 2.02258 8.11987C1.98176 8.42635 1.95395 8.73696 1.95395 9.05408C1.95395 12.9749 5.13286 16.1538 9.05368 16.1538C9.37081 16.1538 9.68142 16.126 9.98789 16.0852C10.6635 16.5011 11.4564 16.7455 12.3077 16.7455C14.7583 16.7455 16.7451 14.7587 16.7451 12.3081C16.7451 11.4567 16.5007 10.6639 16.0848 9.98829ZM9.14184 13.1956C6.83679 13.1956 5.51328 11.9875 5.51328 10.8018C5.51328 10.1971 6.14634 10.0037 6.39957 10.0037C6.9847 10.0037 7.17935 10.4811 7.28585 10.7C7.88045 11.9224 8.45198 11.7614 9.01523 11.8147C9.5128 11.8614 10.6807 11.6419 10.6807 10.7888C10.6807 10.7071 10.8091 10.1522 9.80093 9.87706C9.15663 9.70075 8.02067 9.4848 7.08587 9.12508C6.20669 8.78666 5.69078 8.0897 5.69078 7.19158C5.69078 6.74253 5.92093 4.91257 9.03416 4.91257C11.112 4.91257 12.2196 5.97694 12.2196 6.91351C12.2196 7.12887 12.1373 7.31879 11.9723 7.48977C11.8072 7.66076 11.3422 7.91102 10.8328 7.58503C10.7044 7.50279 10.5985 7.3318 10.4719 7.10994C10.3192 6.83127 10.0695 6.29288 8.91997 6.29288C7.80472 6.29288 7.49529 6.82476 7.49529 7.04663C7.49529 7.7921 8.9182 7.94889 9.3004 8.04769C10.6955 8.40741 12.5935 8.73814 12.5935 10.619C12.5935 12.7785 10.3464 13.1956 9.14184 13.1956Z" fill="#454545"/>
</g>
<defs>
<filter id="filter0_i_630_209" x="1.3623" y="1.3627" width="15.3828" height="19.3828" filterUnits="userSpaceOnUse" color-interpolation-filters="sRGB">
<feFlood flood-opacity="0" result="BackgroundImageFix"/>
<feBlend mode="normal" in="SourceGraphic" in2="BackgroundImageFix" result="shape"/>
<feColorMatrix in="SourceAlpha" type="matrix" values="0 0 0 0 0 0 0 0 0 0 0 0 0 0 0 0 0 0 127 0" result="hardAlpha"/>
<feOffset dy="4"/>
<feGaussianBlur stdDeviation="5"/>
<feComposite in2="hardAlpha" operator="arithmetic" k2="-1" k3="1"/>
<feColorMatrix type="matrix" values="0 0 0 0 0 0 0 0 0 0 0 0 0 0 0 0 0 0 0.2 0"/>
<feBlend mode="normal" in2="shape" result="effect1_innerShadow_630_209"/>
</filter>
</defs>
</svg>
