<svg width="27" height="36" viewBox="0 0 27 36" fill="none" xmlns="http://www.w3.org/2000/svg">
<path d="M7.26391 1.45267C7.26391 1.45267 -0.088072 1.90455 0.329031 8.55528C0.745682 15.206 2.36807 21.0264 4.72418 24.1995C7.07986 27.373 13.1307 35.6859 19.4902 34.5089C19.4902 34.5089 22.6105 33.6811 24.9239 32.0219L16.8922 26.3186C16.8922 26.3186 14.6692 27.8766 13.1427 26.0164C11.6167 24.1563 6.69285 15.4029 6.69285 15.4029C6.69285 15.4029 5.31101 12.5689 8.02136 11.1812L7.26391 1.45267Z" fill="white"/>
<path d="M8.12257 1.41112C8.12257 1.41112 8.68651 1.1913 9.76526 1.71872C10.8436 2.24616 10.8673 2.72825 10.8673 2.72825L11.2844 9.37988C11.2844 9.37988 11.0163 9.77979 10.6529 10.1834C10.2895 10.5879 9.07545 11.227 8.86558 10.8502C8.65619 10.4738 8.12257 1.41112 8.12257 1.41112Z" fill="white"/>
<path d="M17.4998 25.5763L19.573 24.3523C19.573 24.3523 20.046 24.2332 20.8333 24.6779C21.6211 25.1245 25.7878 28.1138 25.7878 28.1138C25.7878 28.1138 26.4846 28.6601 26.3259 29.3445C26.1673 30.0288 25.7596 31.4992 25.7596 31.4992L17.4998 25.5763Z" fill="white"/>
</svg>