<svg width="25" height="25" viewBox="0 0 25 25" fill="none" xmlns="http://www.w3.org/2000/svg">
<mask id="mask0_277_370" style="mask-type:luminance" maskUnits="userSpaceOnUse" x="3" y="0" width="22" height="18">
<path d="M3.91602 0H24.9993V17.5H3.91602V0Z" fill="white"/>
</mask>
<g mask="url(#mask0_277_370)">
<path d="M4.86564 4.02828C4.75724 4.12561 4.61466 4.17607 4.46915 4.16793C4.32397 4.16044 4.18725 4.09566 4.08992 3.98726C3.99292 3.87919 3.94246 3.73629 3.94995 3.59111C3.95776 3.44592 4.02286 3.3092 4.13094 3.21187C5.27612 2.18127 6.60196 1.3717 8.04207 0.823527C9.47045 0.279257 10.9864 -0.000365639 12.5147 -0.000365639C13.5867 -0.000691222 14.654 0.137981 15.6899 0.411418C16.7611 0.694947 17.7901 1.12008 18.7491 1.67444C19.7273 2.23824 20.6244 2.93193 21.4164 3.73694C22.1814 4.51526 22.8412 5.39156 23.3774 6.34273C23.9063 7.28023 24.3126 8.28186 24.586 9.3232C24.8601 10.3645 24.9988 11.4368 24.9988 12.5136C24.9991 14.0986 24.6957 15.6696 24.1062 17.1409C24.0522 17.2757 23.9464 17.3841 23.8126 17.4414C23.6788 17.4983 23.5277 17.5003 23.3923 17.4459C23.2572 17.3919 23.1488 17.2861 23.0922 17.1526C23.0346 17.0188 23.0333 16.8675 23.087 16.7324C23.6251 15.3909 23.9014 13.9589 23.9008 12.5136C23.9008 11.5312 23.7742 10.5527 23.5242 9.60217C23.2748 8.65198 22.904 7.73726 22.4213 6.88212C21.9324 6.01461 21.3311 5.21643 20.6335 4.50614C19.9109 3.77209 19.0925 3.13961 18.2003 2.62496C17.3249 2.1191 16.3865 1.73173 15.4096 1.47294C14.4649 1.22327 13.4916 1.09696 12.5147 1.09762C11.1195 1.09762 9.7364 1.3525 8.43302 1.84957C7.11954 2.34957 5.90991 3.08818 4.86564 4.02828Z" fill="white"/>
</g>
<mask id="mask1_277_370" style="mask-type:luminance" maskUnits="userSpaceOnUse" x="0" y="5" width="23" height="21">
<path d="M0 5.08386H22.9167V25.0005H0V5.08386Z" fill="white"/>
</mask>
<g mask="url(#mask1_277_370)">
<path d="M21.8594 19.0117C21.9427 18.8922 22.07 18.8108 22.2132 18.7851C22.3564 18.7597 22.5042 18.7919 22.624 18.8753C22.7432 18.9586 22.8245 19.0859 22.8499 19.2291C22.876 19.3724 22.8434 19.5201 22.7601 19.6393C21.6263 21.2649 20.124 22.5999 18.376 23.5341C17.4902 24.0071 16.5501 24.3707 15.5765 24.6178C14.571 24.872 13.5381 25 12.5007 24.9996C11.6549 25 10.8115 24.9147 9.98307 24.7457C9.17871 24.581 8.39225 24.3365 7.6364 24.0166C6.1517 23.3873 4.80241 22.4772 3.66276 21.3369C2.52246 20.1972 1.61231 18.8479 0.983076 17.3632C0.663415 16.6074 0.418949 15.8209 0.254235 15.0166C0.0849645 14.1881 -0.000322004 13.345 3.57886e-06 12.499C-0.000973004 11.2096 0.19792 9.92737 0.589522 8.69885C0.968753 7.512 1.52377 6.38896 2.23568 5.36682C2.31836 5.24768 2.44629 5.1663 2.58952 5.14026C2.73275 5.11487 2.88054 5.14742 2.99968 5.23075C3.11882 5.31343 3.20085 5.44136 3.22624 5.58459C3.25163 5.7275 3.21908 5.87528 3.1364 5.99475C2.48731 6.92639 1.98112 7.95015 1.63542 9.03218C1.278 10.1533 1.09701 11.3225 1.09799 12.499C1.09733 13.2705 1.17546 14.0406 1.32943 14.7965C1.47982 15.5296 1.7028 16.246 1.99414 16.9352C2.56836 18.29 3.39844 19.5205 4.43913 20.5605C5.47917 21.6015 6.71029 22.4313 8.06446 23.0055C8.75358 23.2975 9.47005 23.5201 10.2031 23.6702C10.9593 23.8245 11.7292 23.9023 12.5007 23.9016C13.4473 23.9023 14.39 23.7854 15.307 23.5533C16.1943 23.3284 17.0511 22.9967 17.8584 22.5654C19.4538 21.7132 20.8249 20.4951 21.8594 19.0117Z" fill="white"/>
</g>
<path d="M11.9519 3.86719C11.9519 3.72168 12.0099 3.58171 12.1124 3.47917C12.2153 3.3763 12.3549 3.31836 12.5008 3.31836C12.6466 3.31836 12.7862 3.3763 12.8891 3.47917C12.9916 3.58171 13.0496 3.72168 13.0496 3.86719V13.3148L7.28754 16.6673C7.16188 16.7399 7.01215 16.7604 6.87152 16.723C6.7309 16.6862 6.61045 16.5944 6.53721 16.4684C6.46429 16.3428 6.44379 16.193 6.48122 16.0524C6.51833 15.9118 6.61013 15.7913 6.73578 15.7181L11.9519 12.6833V3.86719Z" fill="white"/>
</svg>
