<svg width="20" height="20" viewBox="0 0 20 20" fill="none" xmlns="http://www.w3.org/2000/svg">
<g filter="url(#filter0_i_630_234)">
<path d="M16.8001 5.59701C16.5312 4.63789 15.9994 3.87861 15.2191 3.34153C14.2344 2.66311 13.1017 2.42251 12.1235 2.27657C10.7699 2.07476 9.54392 2.04649 8.37641 2.18914C7.28121 2.32325 6.45685 2.53755 5.70415 2.88334C4.22964 3.56044 3.3448 4.65696 3.07462 6.14133C2.94314 6.86182 2.85505 7.51328 2.80378 8.13451C2.68545 9.57089 2.7926 10.8423 3.13181 12.0203C3.46182 13.1687 4.039 13.9898 4.89623 14.5289C5.11514 14.6663 5.39387 14.7655 5.66471 14.8615C5.80013 14.9095 5.93029 14.9568 6.04402 15.0068V17.3273C6.04402 17.6311 6.28988 17.8769 6.59359 17.8769C6.7369 17.8769 6.87429 17.821 6.97684 17.7211L9.11794 15.6385C9.21129 15.532 9.21129 15.532 9.30727 15.5301C10.0389 15.5156 10.7864 15.4873 11.5292 15.4472C12.4292 15.3979 13.4718 15.3112 14.4539 14.9016C15.3526 14.5262 16.0086 13.9307 16.4024 13.1319C16.8133 12.2984 17.0578 11.3951 17.1492 10.3716C17.3096 8.57167 17.1952 7.00973 16.8001 5.59701ZM13.0721 12.4469C12.8571 12.7986 12.535 13.0419 12.1564 13.1996C11.8796 13.3153 11.5969 13.291 11.3241 13.1753C9.03379 12.2063 7.23848 10.6786 6.05125 8.48358C5.8067 8.0313 5.63644 7.53892 5.4412 7.061C5.4011 6.9624 5.40438 6.84735 5.38664 6.7402C5.40373 5.96778 5.99603 5.53325 6.59425 5.40177C6.82302 5.35115 7.02549 5.43201 7.1951 5.59438C7.66447 6.04272 8.03589 6.56205 8.31528 7.14449C8.43755 7.40021 8.38233 7.62635 8.17394 7.81634C8.13121 7.85578 8.08585 7.89259 8.03917 7.92743C7.56389 8.28505 7.4942 8.55523 7.7473 9.09363C8.17854 10.0094 8.89443 10.624 9.82068 11.0053C10.0646 11.1059 10.2947 11.0559 10.4814 10.858C10.5063 10.8318 10.5346 10.8061 10.553 10.7759C10.9185 10.1665 11.4477 10.227 11.9368 10.5747C12.2583 10.8028 12.5699 11.0434 12.888 11.2761C13.3705 11.6318 13.3666 11.9657 13.0721 12.4469ZM10.3242 6.13804C10.2013 6.13804 10.0777 6.1479 9.95676 6.16828C9.75166 6.20312 9.55839 6.06441 9.5242 5.85931C9.49002 5.65486 9.62807 5.46093 9.83317 5.42675C9.99423 5.40046 10.1599 5.38665 10.3242 5.38665C11.9513 5.38665 13.2752 6.71062 13.2752 8.33764C13.2752 8.50264 13.2614 8.6683 13.2345 8.82936C13.2036 9.01277 13.0445 9.14293 12.8644 9.14293C12.844 9.14293 12.8229 9.14162 12.8019 9.13768C12.5975 9.10283 12.4594 8.90956 12.4936 8.70512C12.514 8.58547 12.5238 8.46189 12.5238 8.3383C12.5238 7.12477 11.5371 6.13804 10.3242 6.13804ZM11.9605 8.57956C11.9605 8.78663 11.7922 8.95492 11.5851 8.95492C11.378 8.95492 11.2097 8.78663 11.2097 8.57956C11.2097 7.95833 10.7042 7.4528 10.083 7.4528C9.8759 7.4528 9.70761 7.28451 9.70761 7.07744C9.70761 6.87036 9.8759 6.70207 10.083 6.70207C11.1177 6.70142 11.9605 7.54418 11.9605 8.57956ZM14.4888 9.03775C14.4493 9.21262 14.2948 9.33029 14.1226 9.33029C14.095 9.33029 14.0667 9.327 14.0391 9.32109C13.8366 9.27507 13.7098 9.07391 13.7558 8.87209C13.8103 8.63215 13.8379 8.38432 13.8379 8.13582C13.8379 6.30962 12.3523 4.82327 10.5254 4.82327C10.2762 4.82327 10.0291 4.85088 9.78913 4.90545C9.58797 4.95212 9.38549 4.82459 9.34014 4.62211C9.29412 4.41964 9.42099 4.21848 9.62347 4.17312C9.91797 4.10541 10.2217 4.07189 10.5267 4.07189C12.7671 4.07189 14.59 5.89481 14.59 8.13517C14.59 8.44019 14.5558 8.7439 14.4888 9.03775Z" fill="#454545"/>
</g>
<defs>
<filter id="filter0_i_630_234" x="0.127441" y="0.127594" width="19.7217" height="23.7215" filterUnits="userSpaceOnUse" color-interpolation-filters="sRGB">
<feFlood flood-opacity="0" result="BackgroundImageFix"/>
<feBlend mode="normal" in="SourceGraphic" in2="BackgroundImageFix" result="shape"/>
<feColorMatrix in="SourceAlpha" type="matrix" values="0 0 0 0 0 0 0 0 0 0 0 0 0 0 0 0 0 0 127 0" result="hardAlpha"/>
<feOffset dy="4"/>
<feGaussianBlur stdDeviation="7.5"/>
<feComposite in2="hardAlpha" operator="arithmetic" k2="-1" k3="1"/>
<feColorMatrix type="matrix" values="0 0 0 0 0 0 0 0 0 0 0 0 0 0 0 0 0 0 0.2 0"/>
<feBlend mode="normal" in2="shape" result="effect1_innerShadow_630_234"/>
</filter>
</defs>
</svg>
