<svg width="18" height="18" viewBox="0 0 18 18" fill="none" xmlns="http://www.w3.org/2000/svg">
<g filter="url(#filter0_i_630_269)">
<path d="M9.05384 1.95435C5.13301 1.95435 1.9541 5.13325 1.9541 9.05408C1.9541 10.386 2.32822 11.6278 2.96637 12.6929L2.01766 16.1538L5.5525 15.2259C6.5863 15.8137 7.77972 16.1538 9.05384 16.1538C12.9747 16.1538 16.1536 12.9749 16.1536 9.05408C16.1536 5.13325 12.9747 1.95435 9.05384 1.95435ZM6.6237 5.74226C6.73907 5.74226 6.85761 5.74155 6.95997 5.74688C7.08658 5.74984 7.22439 5.75911 7.35632 6.05079C7.51311 6.39749 7.8545 7.26726 7.89828 7.35541C7.94206 7.44357 7.97309 7.54742 7.91215 7.66279C7.85417 7.78112 7.82401 7.85274 7.73881 7.95746C7.65066 8.05922 7.55406 8.18561 7.47419 8.26252C7.38604 8.35068 7.29501 8.44734 7.39677 8.62306C7.49853 8.79878 7.85195 9.37483 8.37437 9.83986C9.04589 10.4398 9.61246 10.6241 9.78877 10.7123C9.96508 10.8005 10.0672 10.7867 10.1689 10.6684C10.2737 10.553 10.6088 10.1571 10.7271 9.98084C10.8425 9.80453 10.9602 9.83503 11.12 9.89301C11.2821 9.95099 12.1466 10.3769 12.3229 10.465C12.4992 10.5532 12.6148 10.5968 12.6592 10.6684C12.7047 10.7423 12.7048 11.0944 12.5586 11.505C12.4125 11.915 11.6949 12.3115 11.373 12.3393C11.0482 12.3695 10.7451 12.4853 9.26184 11.9014C7.4727 11.1967 6.34439 9.36423 6.25624 9.2459C6.16808 9.13053 5.53979 8.29317 5.53979 7.42937C5.53979 6.56261 5.99424 6.13812 6.15339 5.96181C6.3155 5.7855 6.50537 5.74226 6.6237 5.74226Z" fill="#454545"/>
</g>
<defs>
<filter id="filter0_i_630_269" x="0.179199" y="0.179413" width="17.7495" height="21.7493" filterUnits="userSpaceOnUse" color-interpolation-filters="sRGB">
<feFlood flood-opacity="0" result="BackgroundImageFix"/>
<feBlend mode="normal" in="SourceGraphic" in2="BackgroundImageFix" result="shape"/>
<feColorMatrix in="SourceAlpha" type="matrix" values="0 0 0 0 0 0 0 0 0 0 0 0 0 0 0 0 0 0 127 0" result="hardAlpha"/>
<feOffset dy="4"/>
<feGaussianBlur stdDeviation="7.5"/>
<feComposite in2="hardAlpha" operator="arithmetic" k2="-1" k3="1"/>
<feColorMatrix type="matrix" values="0 0 0 0 0 0 0 0 0 0 0 0 0 0 0 0 0 0 0.2 0"/>
<feBlend mode="normal" in2="shape" result="effect1_innerShadow_630_269"/>
</filter>
</defs>
</svg>
